<?xml version="1.0" encoding="utf-8"?>
<svg viewBox="0 0 500 500" xmlns="http://www.w3.org/2000/svg">
  <defs>
    <linearGradient id="paint0_linear" x1="107" y1="55.5" x2="203" y2="189.5" gradientUnits="userSpaceOnUse" gradientTransform="matrix(0.528914, 0, 0, 0.636081, 43.277292, 85.837733)">
      <stop style="stop-color: rgb(37, 6, 86);"/>
      <stop offset="1" style="stop-color: rgb(89, 29, 184);"/>
    </linearGradient>
    <radialGradient id="paint1_diamond" cx="0" cy="0" r="1" gradientUnits="userSpaceOnUse" gradientTransform="matrix(70.874329, 86.188713, -92.359306, 109.843155, 223.107895, 121.14017)">
      <stop style="stop-color: rgb(170, 131, 232);"/>
      <stop offset="1" stop-opacity="0" style="stop-color: rgb(167, 127, 230);"/>
    </radialGradient>
    <linearGradient id="paint2_linear" x1="663" y1="35.5" x2="548.5" y2="179" gradientUnits="userSpaceOnUse" gradientTransform="matrix(-0.524517, -0.034912, 0.031879, -0.629128, 684.10965, 234.08723)">
      <stop style="stop-color: rgb(107, 47, 202);"/>
      <stop offset="1" stop-opacity="0" style="stop-color: rgb(83, 82, 84);"/>
    </linearGradient>
  </defs>
  <path d="M 109.181 202.132 L 99.131 202.132 L 99.131 238.808 L 109.181 238.808 L 109.181 202.132 Z" fill="#191A1D" style="" transform="matrix(1, 0, 0, 1, 0, 7.105427357601002e-15)"/>
  <path d="M 379.63 200.223 L 369.581 200.223 L 369.581 239.025 L 379.63 239.025 L 379.63 200.223 Z" fill="#191A1D" style="" transform="matrix(1, 0, 0, 1, 0, 7.105427357601002e-15)"/>
  <path d="M 443.719 372.487 L 443.719 380.756 L 363.367 381.646 L 362.509 381.665 L 331.97 382.002 L 331.24 382.016 L 321.958 382.11 L 321.682 382.11 L 265.1 382.74 L 172.217 383.778 L 172.137 383.778 L 148.522 384.044 L 148.267 384.049 L 43.331 385.208 L 43.331 375.667 L 68.006 357.856 L 117.511 357.36 L 118.568 357.354 L 118.918 357.347 L 119.976 357.329 L 143.745 357.094 L 144.808 357.087 L 145.147 357.081 L 146.205 357.075 L 153.826 356.997 L 154.027 356.992 L 172.831 356.8 L 172.983 356.8 L 319.705 355.313 L 323.295 355.281 L 323.655 355.281 L 326.395 355.25 L 346.309 355.052 L 347.366 355.033 L 348.345 355.02 L 348.852 355.02 L 355.047 354.962 L 356.273 354.944 L 357.919 354.932 L 363.074 354.874 L 371.257 354.791 L 372.315 354.778 L 374.156 354.765 L 374.499 354.765 L 414.014 354.359 L 443.719 372.487 Z" fill="#252525" style="" transform="matrix(1, 0, 0, 1, 0, 7.105427357601002e-15)"/>
  <path opacity="0.2" d="M 443.719 372.487 L 443.719 380.756 L 363.367 381.646 L 362.509 381.665 L 331.97 382.002 L 331.24 382.016 L 321.958 382.11 L 321.682 382.11 L 265.1 382.74 L 172.217 383.778 L 172.137 383.778 L 148.522 384.044 L 148.267 384.049 L 43.331 385.208 L 43.331 375.667 L 68.006 357.856 L 117.511 357.36 L 118.568 357.354 L 118.918 357.347 L 119.976 357.329 L 143.745 357.094 L 144.808 357.087 L 145.147 357.081 L 146.205 357.075 L 153.826 356.997 L 154.027 356.992 L 172.831 356.8 L 172.983 356.8 L 319.705 355.313 L 323.295 355.281 L 323.655 355.281 L 326.395 355.25 L 346.309 355.052 L 347.366 355.033 L 348.345 355.02 L 348.852 355.02 L 355.047 354.962 L 356.273 354.944 L 357.919 354.932 L 363.074 354.874 L 371.257 354.791 L 372.315 354.778 L 374.156 354.765 L 374.499 354.765 L 414.014 354.359 L 443.719 372.487 Z" fill="black" style="" transform="matrix(1, 0, 0, 1, 0, 7.105427357601002e-15)"/>
  <path d="M 143.825 340.689 L 143.825 356.268 C 143.825 357.004 143.652 357.727 143.322 358.35 C 142.996 358.976 142.528 359.474 141.973 359.791 C 141.56 360.031 141.11 360.162 140.651 360.172 L 122.192 360.643 C 121.699 360.657 121.209 360.533 120.763 360.28 C 120.201 359.969 119.721 359.47 119.387 358.842 C 119.054 358.214 118.875 357.484 118.876 356.738 L 118.876 340.689 L 143.825 340.689 Z" fill="#191A1D" style="" transform="matrix(1, 0, 0, 1, 0, 7.105427357601002e-15)"/>
  <path opacity="0.1" d="M 143.825 340.689 L 143.825 356.268 C 143.825 357.004 143.652 357.727 143.322 358.35 C 142.996 358.976 142.528 359.474 141.973 359.791 C 141.56 360.031 141.11 360.162 140.651 360.172 L 122.192 360.643 C 121.699 360.657 121.209 360.533 120.763 360.28 C 120.201 359.969 119.721 359.47 119.387 358.842 C 119.054 358.214 118.875 357.484 118.876 356.738 L 118.876 340.689 L 143.825 340.689 Z" fill="black" style="" transform="matrix(1, 0, 0, 1, 0, 7.105427357601002e-15)"/>
  <path d="M 144.883 340.689 L 144.883 356.268 C 144.884 357.004 144.709 357.727 144.381 358.35 C 144.054 358.976 143.586 359.474 143.031 359.791 C 142.618 360.031 142.168 360.162 141.709 360.172 L 123.249 360.643 C 122.757 360.657 122.268 360.533 121.821 360.28 C 121.259 359.969 120.78 359.47 120.445 358.842 C 120.111 358.214 119.933 357.484 119.934 356.738 L 119.934 340.689 L 144.883 340.689 Z" fill="#191A1D" style="" transform="matrix(1, 0, 0, 1, 0, 7.105427357601002e-15)"/>
  <path d="M 372.315 340.689 L 347.366 340.689 L 347.366 360.725 L 372.315 360.725 L 372.315 340.689 Z" fill="#191A1D" style="" transform="matrix(1, 0, 0, 1, 0, 7.105427357601002e-15)"/>
  <path opacity="0.1" d="M 372.315 340.689 L 347.366 340.689 L 347.366 360.725 L 372.315 360.725 L 372.315 340.689 Z" fill="black" style="" transform="matrix(1, 0, 0, 1, 0, 7.105427357601002e-15)"/>
  <path d="M 371.257 340.689 L 346.309 340.689 L 346.309 360.725 L 371.257 360.725 L 371.257 340.689 Z" fill="#191A1D" style="" transform="matrix(1, 0, 0, 1, 0, 7.105427357601002e-15)"/>
  <path opacity="0.1" d="M 109.181 202.126 L 109.181 205.77 L 99.131 205.457 L 99.131 202.126 L 109.181 202.126 Z" fill="black" style="" transform="matrix(1, 0, 0, 1, 0, 7.105427357601002e-15)"/>
  <path d="M 175.326 99.449 L 163.252 203.766 C 163.175 204.433 162.896 205.042 162.47 205.476 C 162.043 205.913 161.499 206.144 160.941 206.126 L 64.254 203.111 L 62.42 203.054 C 62.1 203.046 61.787 202.955 61.497 202.79 C 61.208 202.624 60.952 202.388 60.744 202.096 C 60.537 201.804 60.382 201.461 60.292 201.093 C 60.201 200.725 60.177 200.337 60.219 199.956 L 73.775 90.754 C 73.862 90.078 74.158 89.465 74.602 89.039 C 75.046 88.611 75.609 88.398 76.176 88.445 L 173.212 96.345 C 173.523 96.366 173.83 96.467 174.11 96.637 C 174.389 96.809 174.636 97.049 174.835 97.34 C 175.033 97.631 175.18 97.969 175.264 98.333 C 175.349 98.696 175.37 99.076 175.326 99.449 Z" fill="#252525" style="" transform="matrix(1, 0, 0, 1, 0, 7.105427357601002e-15)"/>
  <path d="M 80.264 96.116 L 70.04 192.375 L 158.898 195.765 L 169.826 102.897 L 80.264 96.116 Z" fill="url(#paint0_linear)" style="" transform="matrix(1, 0, 0, 1, 0, 7.105427357601002e-15)"/>
  <path d="M 296.066 94.628 L 193.452 94.628 C 191.896 94.628 190.633 96.145 190.633 98.017 L 190.633 201.489 C 190.633 203.362 191.896 204.88 193.452 204.88 L 296.066 204.88 C 297.624 204.88 298.887 203.362 298.887 201.489 L 298.887 98.017 C 298.887 96.145 297.624 94.628 296.066 94.628 Z" fill="#252525" style="" transform="matrix(1, 0, 0, 1, 0, 7.105427357601002e-15)"/>
  <path d="M 294.12 102.051 L 195.742 102.051 L 195.742 193.856 L 294.12 193.856 L 294.12 102.051 Z" fill="url(#paint1_diamond)" style="" transform="matrix(1, 0, 0, 1, 0, 7.105427357601002e-15)"/>
  <path opacity="0.1" d="M 379.63 200.218 L 379.63 202.628 L 369.581 202.875 L 369.581 200.218 L 379.63 200.218 Z" fill="black" style="" transform="matrix(1, 0, 0, 1, 0, 7.105427357601002e-15)"/>
  <path d="M 424.974 198.181 C 424.988 198.445 424.958 198.71 424.886 198.959 C 424.812 199.207 424.698 199.438 424.551 199.632 C 424.402 199.827 424.223 199.984 424.023 200.093 C 423.823 200.201 423.607 200.262 423.386 200.268 L 324.374 202.729 C 323.963 202.74 323.564 202.562 323.257 202.233 C 322.95 201.904 322.757 201.447 322.719 200.955 L 314.208 94.551 C 314.187 94.289 314.211 94.021 314.279 93.768 C 314.347 93.515 314.455 93.282 314.599 93.083 C 314.743 92.882 314.921 92.718 315.119 92.603 C 315.317 92.487 315.533 92.421 315.753 92.407 L 414.014 86.53 L 415.072 86.467 C 415.493 86.44 415.905 86.61 416.224 86.943 C 416.542 87.276 416.739 87.743 416.775 88.248 L 424.974 198.181 Z" fill="#252525" style="" transform="matrix(1, 0, 0, 1, 0, 7.105427357601002e-15)"/>
  <path d="M 319.863 98.66 L 409.604 93.356 L 417.183 190.039 L 328.152 192.585 L 319.863 98.66 Z" fill="url(#paint2_linear)" style="" transform="matrix(1, 0, 0, 1, 0, 7.105427357601002e-15)"/>
  <path opacity="0.1" d="M 424.974 198.181 C 424.988 198.445 424.958 198.71 424.886 198.959 C 424.812 199.207 424.698 199.438 424.551 199.632 C 424.402 199.827 424.223 199.984 424.023 200.093 C 423.823 200.201 423.607 200.262 423.386 200.268 L 414.014 86.53 L 415.072 86.467 C 415.493 86.44 415.905 86.61 416.224 86.943 C 416.542 87.276 416.739 87.743 416.775 88.248 L 424.974 198.181 Z" fill="black" style="" transform="matrix(1, 0, 0, 1, 0, 7.105427357601002e-15)"/>
  <path opacity="0.1" d="M 76.192 88.438 L 64.254 203.111 L 62.42 203.054 C 62.1 203.046 61.787 202.955 61.497 202.79 C 61.208 202.624 60.952 202.388 60.744 202.096 C 60.537 201.804 60.382 201.461 60.292 201.093 C 60.201 200.725 60.177 200.337 60.219 199.956 L 73.775 90.754 C 73.862 90.073 74.158 89.456 74.607 89.027 C 75.055 88.598 75.621 88.388 76.192 88.438 Z" fill="black" style="" transform="matrix(1, 0, 0, 1, 0, 7.105427357601002e-15)"/>
  <path opacity="0.1" d="M 109.181 227.943 L 99.131 227.943 L 99.131 238.808 L 109.181 238.808 L 109.181 227.943 Z" fill="black" style="" transform="matrix(1, 0, 0, 1, 0, 7.105427357601002e-15)"/>
  <path opacity="0.1" d="M 144.883 340.683 L 144.883 343.844 L 119.934 344.645 L 119.934 340.683 L 144.883 340.683 Z" fill="black" style="" transform="matrix(1, 0, 0, 1, 0, 7.105427357601002e-15)"/>
  <path d="M 188.914 231.729 L 188.914 338.716 C 188.909 339.371 188.692 339.995 188.315 340.463 C 187.935 340.93 187.421 341.206 186.878 341.23 L 85.512 344.473 L 85.485 344.473 C 84.934 344.465 84.406 344.198 84.017 343.729 C 83.626 343.259 83.403 342.625 83.396 341.962 L 83.396 231.729 C 83.403 231.064 83.626 230.43 84.017 229.961 C 84.406 229.491 84.934 229.225 85.485 229.216 L 186.825 229.216 C 187.376 229.225 187.905 229.491 188.296 229.961 C 188.684 230.43 188.908 231.064 188.914 231.729 Z" fill="#252525" style="" transform="matrix(1, 0, 0, 1, 0, 7.105427357601002e-15)"/>
  <path opacity="0.1" d="M 85.512 229.216 L 85.512 344.473 L 85.485 344.473 C 84.934 344.465 84.406 344.198 84.017 343.729 C 83.626 343.259 83.403 342.625 83.396 341.962 L 83.396 231.729 C 83.403 231.064 83.626 230.43 84.017 229.961 C 84.406 229.491 84.934 229.225 85.485 229.216 L 85.512 229.216 Z" fill="black" style="" transform="matrix(1, 0, 0, 1, 0, 7.105427357601002e-15)"/>
  <path d="M 90.14 236.047 L 184.022 236.047 L 184.022 330.346 L 90.14 332.89 L 90.14 236.047 Z" style="fill: rgb(155, 108, 228);" transform="matrix(1, 0, 0, 1, 0, 7.105427357601002e-15)"/>
  <path opacity="0.1" d="M 379.63 227.943 L 369.581 227.943 L 369.581 239.025 L 379.63 239.025 L 379.63 227.943 Z" fill="black" style="" transform="matrix(1, 0, 0, 1, 0, 7.105427357601002e-15)"/>
  <path opacity="0.1" d="M 371.257 340.683 L 371.257 344.76 L 346.309 343.959 L 346.309 340.683 L 371.257 340.683 Z" fill="black" style="" transform="matrix(1, 0, 0, 1, 0, 7.105427357601002e-15)"/>
  <path d="M 404.183 231.729 L 404.183 341.962 C 404.176 342.63 403.949 343.27 403.553 343.74 C 403.158 344.211 402.622 344.473 402.067 344.473 L 300.679 341.23 C 300.137 341.206 299.622 340.93 299.244 340.463 C 298.864 339.995 298.65 339.371 298.642 338.716 L 298.642 231.729 C 298.65 231.064 298.872 230.43 299.263 229.961 C 299.653 229.491 300.18 229.225 300.732 229.216 L 402.071 229.216 C 402.627 229.219 403.161 229.481 403.554 229.952 C 403.949 230.422 404.176 231.062 404.183 231.729 Z" fill="#252525" style="" transform="matrix(1, 0, 0, 1, 0, 7.105427357601002e-15)"/>
  <path opacity="0.1" d="M 404.183 231.729 L 404.183 341.962 C 404.176 342.63 403.949 343.27 403.553 343.74 C 403.158 344.211 402.622 344.473 402.067 344.473 L 402.067 229.216 C 402.622 229.216 403.158 229.479 403.553 229.949 C 403.949 230.42 404.176 231.059 404.183 231.729 Z" fill="black" style="" transform="matrix(1, 0, 0, 1, 0, 7.105427357601002e-15)"/>
  <path d="M 397.439 236.047 L 303.557 236.047 L 303.557 330.346 L 397.439 332.89 L 397.439 236.047 Z" style="fill: rgb(138, 88, 218);" transform="matrix(1, 0, 0, 1, 0, 7.105427357601002e-15)"/>
  <path d="M 296.018 231.729 L 296.018 338.716 C 296.012 339.371 295.798 339.995 295.419 340.463 C 295.04 340.93 294.526 341.206 293.984 341.23 L 192.616 344.473 C 192.06 344.473 191.526 344.211 191.13 343.74 C 190.734 343.27 190.508 342.63 190.502 341.962 L 190.502 231.729 C 190.508 231.064 190.73 230.43 191.121 229.961 C 191.511 229.491 192.038 229.225 192.591 229.216 L 293.931 229.216 C 294.482 229.225 295.011 229.491 295.4 229.961 C 295.791 230.43 296.012 231.064 296.018 231.729 Z" fill="#252525" style="" transform="matrix(1, 0, 0, 1, 0, 7.105427357601002e-15)"/>
  <path d="M 197.245 236.047 L 291.127 236.047 L 291.127 330.346 L 197.245 332.89 L 197.245 236.047 Z" style="fill: rgb(127, 82, 199);" transform="matrix(1, 0, 0, 1, 0, 7.105427357601002e-15)"/>
  <path opacity="0.1" d="M 443.719 372.487 L 443.719 380.756 L 363.367 381.646 L 362.509 381.665 L 331.97 382.002 L 331.24 382.016 L 321.958 382.11 L 321.682 382.11 L 265.1 382.74 L 172.217 383.778 L 172.137 383.778 L 148.522 384.044 L 148.267 384.049 L 43.331 385.208 L 43.331 375.667 L 150.441 374.822 L 150.695 374.822 L 172.375 374.643 L 172.476 374.643 L 322.2 373.453 L 322.354 373.453 L 322.444 373.448 L 322.692 373.448 L 325.227 373.427 L 325.998 373.427 L 365.398 373.11 L 367.725 373.097 L 368.242 373.091 L 443.719 372.487 Z" fill="black" style="" transform="matrix(1, 0, 0, 1, 0, 7.105427357601002e-15)"/>
  <path d="M 244.932 238.808 C 259.925 238.808 272.081 224.19 272.081 206.159 C 272.081 188.126 259.925 173.508 244.932 173.508 C 229.938 173.508 217.783 188.126 217.783 206.159 C 217.783 224.19 229.938 238.808 244.932 238.808 Z" fill="#FBBEBE" style="" transform="matrix(1, 0, 0, 1, 0, 7.105427357601002e-15)"/>
  <path d="M 272.086 272.946 C 272.086 272.946 219.459 280.579 224.485 272.946 C 226.304 270.186 226.806 262.006 226.706 252.686 C 226.673 249.857 226.589 246.924 226.467 244.005 C 225.886 230.011 224.485 216.336 224.485 216.336 C 224.485 216.336 270.5 190.256 265.211 210.928 C 263.094 219.28 263.788 231.01 265.395 242.02 C 265.866 245.232 266.412 248.382 266.983 251.371 C 268.377 258.663 270.08 265.864 272.086 272.946 Z" fill="#FBBEBE" style="" transform="matrix(1, 0, 0, 1, 0, 7.105427357601002e-15)"/>
  <path opacity="0.1" d="M 272.086 272.946 C 272.086 272.946 219.459 280.579 224.485 272.946 C 226.304 270.186 226.806 262.006 226.706 252.686 C 234.729 248.565 244.936 251.638 244.936 251.638 C 255.683 249.061 262.577 249.564 266.983 251.371 C 268.377 258.663 270.08 265.864 272.086 272.946 Z" fill="black" style="" transform="matrix(1, 0, 0, 1, 0, 7.105427357601002e-15)"/>
  <path d="M 172.195 384.494 L 172.195 383.962 L 265.085 382.746 L 321.677 382.11 L 321.835 382.11 L 321.777 383.051 L 321.856 382.11 L 321.958 382.11 L 321.958 382.002 L 322.681 373.448 L 322.957 370.209 L 323.042 369.198 L 323.115 368.352 L 326.384 355.242 L 329.653 342.151 L 332.403 331.129 L 336.603 314.285 C 336.603 314.285 334.222 307.606 332.9 305.699 C 331.578 303.79 330.256 290.751 330.256 290.751 C 330.256 290.751 318.97 277.819 314.034 276.33 C 311.965 275.693 307.883 274.848 303.545 273.786 C 301.922 273.391 300.257 272.972 298.654 272.513 C 297.749 272.266 296.86 272.005 296.008 271.744 C 294.351 271.246 292.718 270.639 291.115 269.925 C 290.277 269.558 289.478 269.068 288.736 268.468 C 284.849 265.039 275.107 264.651 274.73 264.651 C 274.73 264.637 274.73 264.622 274.73 264.607 L 274.73 264.55 C 274.745 264.284 274.745 264.016 274.73 263.748 C 274.73 263.494 274.73 263.195 274.683 262.858 C 274.683 262.756 274.683 262.649 274.646 262.54 C 274.62 262.311 274.588 262.07 274.54 261.815 C 274.525 261.702 274.504 261.589 274.477 261.477 C 274.323 260.713 274.102 259.967 273.815 259.258 C 273.778 259.156 273.73 259.049 273.689 258.947 C 273.429 258.358 273.129 257.799 272.789 257.274 C 272.721 257.165 272.648 257.051 272.567 256.942 C 272.134 256.329 271.652 255.765 271.128 255.263 C 270.987 255.13 270.838 254.991 270.684 254.862 C 270.598 254.779 270.509 254.703 270.415 254.634 L 269.945 254.264 L 269.506 253.959 C 269.12 253.705 268.711 253.457 268.267 253.222 C 268.13 253.144 267.982 253.075 267.833 253.005 C 267.685 252.936 267.452 252.827 267.257 252.739 L 267.224 252.739 L 266.828 252.548 C 266.528 252.426 266.22 252.319 265.897 252.211 L 265.405 252.058 L 264.877 251.912 L 264.348 251.778 C 263.819 251.651 263.253 251.536 262.661 251.447 L 262.058 251.358 L 261.439 251.281 L 260.8 251.218 L 259.889 251.155 L 258.831 251.111 C 254.166 251.109 249.513 251.704 244.952 252.884 C 241.784 252.037 238.539 251.677 235.294 251.815 L 234.835 251.815 L 234.306 251.854 L 233.967 251.854 L 233.286 251.931 C 233.057 251.931 232.825 251.989 232.597 252.026 C 232.37 252.063 232.131 252.096 231.905 252.14 L 231.555 252.211 C 231.211 252.281 230.862 252.357 230.498 252.447 C 230.381 252.471 230.264 252.503 230.148 252.541 C 229.688 252.661 229.229 252.809 228.773 252.974 C 228.546 253.05 228.319 253.138 228.091 253.235 C 227.975 253.273 227.864 253.323 227.752 253.374 L 227.415 253.52 L 227.081 253.68 L 226.685 253.871 C 226.484 253.972 226.287 254.08 226.092 254.195 C 225.981 254.252 225.87 254.316 225.764 254.385 C 225.659 254.455 225.546 254.513 225.446 254.583 C 224.251 255.325 223.145 256.263 222.162 257.369 L 221.892 257.681 L 221.627 258.004 C 221.538 258.114 221.453 258.228 221.369 258.341 C 221.023 258.794 220.703 259.272 220.406 259.773 C 220.322 259.907 220.242 260.04 220.163 260.179 C 219.827 260.777 219.523 261.396 219.252 262.038 C 219.184 262.191 219.121 262.349 219.058 262.502 C 218.627 263.577 218.272 264.694 218 265.842 C 217.9 266.265 217.81 266.689 217.73 267.113 C 217.73 267.113 206.533 273.054 197.245 277.355 C 194.774 278.5 192.448 279.536 190.502 280.319 C 189.934 280.547 189.407 280.758 188.914 280.955 C 187.848 281.418 186.737 281.727 185.609 281.87 C 185.077 281.881 184.546 281.94 184.022 282.049 C 179.754 282.882 172.44 286.502 171.64 290.133 C 171.574 290.423 171.557 290.726 171.587 291.023 C 171.587 291.023 171.587 291.069 171.587 291.094 C 172.117 295.547 168.414 294.911 168.414 294.911 C 168.414 294.911 167.091 306.677 165.241 309.858 C 163.902 312.147 162.988 317.256 162.871 321.111 C 162.804 322.312 162.882 323.517 163.104 324.692 C 163.104 324.723 163.104 324.756 163.104 324.781 C 163.315 325.634 162.808 327.961 161.945 330.945 C 161.009 334.219 159.644 338.291 158.333 342.133 C 156.354 347.933 154.492 353.201 154.376 354.359 C 154.33 354.874 154.192 355.796 154 356.984 C 153.229 361.832 151.515 371.062 150.669 374.796 C 150.038 377.582 149.124 381.398 148.494 384.019 C 148.494 384.095 148.458 384.171 148.442 384.242 L 172.153 383.962 L 172.153 384.494 L 172.227 384.494 L 172.195 384.494 Z" style="fill: rgb(75, 50, 164);" transform="matrix(1, 0, 0, 1, 0, 7.105427357601002e-15)"/>
  <path opacity="0.1" d="M 180.848 309.521 C 180.848 309.521 210.997 328.286 221.839 326.059 L 180.848 309.521 Z" fill="black" style="" transform="matrix(1, 0, 0, 1, 0, 7.105427357601002e-15)"/>
  <path opacity="0.1" d="M 242.202 301.888 C 242.202 301.888 271.557 313.338 281.342 314.928 C 291.127 316.518 242.202 301.888 242.202 301.888 Z" fill="black" style="" transform="matrix(1, 0, 0, 1, 0, 7.105427357601002e-15)"/>
  <path opacity="0.1" d="M 274.762 265.046 C 259.423 268.443 230.546 267.711 218.063 267.196 C 222.638 247.478 244.947 254.182 244.947 254.182 C 272.562 247.555 274.678 261.307 274.762 265.046 Z" fill="black" style="" transform="matrix(1, 0, 0, 1, 0, 7.105427357601002e-15)"/>
  <path d="M 274.762 263.773 C 259.423 267.17 230.546 266.44 218.063 265.924 C 222.638 246.206 244.947 252.909 244.947 252.909 C 272.562 246.282 274.678 260.034 274.762 263.773 Z" style="fill: rgb(75, 50, 164);" transform="matrix(1, 0, 0, 1, 0, 7.105427357601002e-15)"/>
  <path d="M 356.184 350.707 C 356.184 350.707 374.25 347.368 374.605 356.908 C 374.959 366.45 365.393 373.116 365.393 373.116 L 356.184 350.707 Z" fill="#FBBEBE" style="" transform="matrix(1, 0, 0, 1, 0, 7.105427357601002e-15)"/>
  <path opacity="0.1" d="M 265.395 242.02 C 264.619 242.437 263.824 242.807 263.016 243.127 C 257.313 245.492 251.564 247.879 245.562 248.744 C 239.557 249.61 233.259 248.845 228.023 245.245 C 227.473 244.872 226.943 244.458 226.435 244.005 C 225.853 230.011 224.452 216.336 224.452 216.336 C 224.452 216.336 270.467 190.256 265.179 210.928 C 263.074 219.28 263.788 231.01 265.395 242.02 Z" fill="black" style="" transform="matrix(1, 0, 0, 1, 0, 7.105427357601002e-15)"/>
  <path d="M 237.485 155.125 C 236.73 155.365 235.938 155.389 235.175 155.196 C 234.41 155.002 233.694 154.597 233.084 154.012 L 234.185 155.85 C 233.535 155.94 232.879 155.859 232.26 155.612 C 231.639 155.364 231.073 154.957 230.599 154.419 C 230.499 156.065 230.556 157.719 230.768 159.349 C 228.946 159.454 227.155 158.779 225.711 157.442 C 225.683 158.014 225.802 158.585 226.051 159.076 C 226.301 159.566 226.669 159.953 227.107 160.183 C 225.279 159.919 223.433 160.466 221.914 161.72 C 220.396 162.972 219.309 164.848 218.856 166.994 L 221.617 167.3 C 219.448 167.857 217.499 169.286 216.095 171.351 C 215.249 172.624 214.604 174.252 214.975 175.804 C 215.343 177.357 217.133 178.348 218.106 177.243 C 216.722 179.229 215.714 181.556 215.158 184.061 C 214.6 186.565 214.505 189.184 214.879 191.738 C 215.13 192.827 215.212 193.96 215.122 195.083 C 214.948 196.133 214.397 197.044 214.122 198.067 C 213.595 199.925 214.097 201.941 214.567 203.791 L 217.047 213.6 C 217.946 217.142 218.84 220.692 220.014 224.121 C 220.847 226.289 221.552 228.521 222.131 230.806 C 222.797 233.885 222.823 237.256 224.246 239.947 C 225.221 241.64 226.524 243.022 228.043 243.972 C 233.274 247.574 239.595 248.337 245.583 247.471 C 251.57 246.606 257.313 244.221 263.01 241.854 C 264.276 241.397 265.49 240.757 266.627 239.947 C 270.568 236.843 271.446 230.494 272.183 224.903 C 273.001 218.67 274.096 212.448 276.036 206.585 C 277.19 203.092 278.682 199.55 278.428 195.809 C 278.105 190.841 274.837 186.815 274.028 181.929 C 273.756 180.296 273.77 178.616 274.065 176.987 C 274.315 176.018 274.456 175.012 274.482 173.998 C 274.393 171.95 272.995 170.372 271.684 169.055 C 268.839 166.198 265.901 163.496 262.873 160.952 C 262.72 159.679 264.158 159.133 264.808 158.127 C 265.728 156.709 264.777 154.457 263.38 153.796 C 261.984 153.134 260.419 153.567 258.964 154.005 C 259.059 153.11 258.91 152.203 258.542 151.416 C 258.172 150.631 257.603 150.008 256.916 149.642 C 256.231 149.279 255.464 149.188 254.732 149.39 C 254 149.589 253.342 150.069 252.855 150.756 C 252.468 149.69 251.851 148.769 251.069 148.089 C 250.284 147.408 249.364 146.995 248.401 146.889 C 244.894 146.557 244.826 149.783 242.583 151.557 C 240.341 153.332 238.49 150.991 236.766 149.286 C 236.448 150.25 236.348 151.297 236.474 152.322 C 236.601 153.347 236.949 154.313 237.485 155.125 Z" fill="#191A1D" style="" transform="matrix(1, 0, 0, 1, 0, 7.105427357601002e-15)"/>
  <path d="M 369.581 369.789 C 369.581 369.789 369.11 371.139 368.242 373.091 C 366.93 376.095 365.333 378.908 363.482 381.468 L 363.339 381.652 L 362.483 381.652 L 331.942 381.989 L 331.214 381.989 L 331.123 381.862 L 325.2 373.409 L 322.967 370.222 L 322.878 370.089 L 322.687 369.82 L 322.581 369.669 L 322.444 369.472 L 318.102 363.276 L 319.689 355.325 L 322.391 341.928 L 322.46 341.605 L 322.989 339.061 L 323.365 337.152 L 324.624 330.932 L 328.939 309.528 L 336.608 314.298 L 344.695 331.472 L 349.038 340.695 L 351.417 340.695 C 351.868 340.695 352.898 341.739 353.936 342.941 C 354.306 343.367 354.676 343.819 354.994 344.213 C 355.935 345.383 356.681 346.388 356.681 346.388 C 356.681 346.388 360.536 346.49 361.573 350.141 C 361.626 350.318 361.67 350.498 361.706 350.682 C 362.05 352.116 362.498 353.513 363.043 354.855 C 363.726 356.642 364.583 358.671 365.451 360.7 C 367.063 364.421 368.703 367.964 369.306 369.249 L 369.38 369.408 L 369.581 369.789 Z" style="fill: rgb(75, 50, 164);" transform="matrix(1, 0, 0, 1, 0, 7.105427357601002e-15)"/>
  <path opacity="0.1" d="M 324.148 341.071 L 324.094 341.981 L 324.094 342.044 L 324.004 343.507 L 323.302 355.281 L 322.45 369.466 L 322.206 373.461 L 321.677 382.009 L 321.677 382.117 L 265.085 382.753 L 172.212 383.962 L 172.212 384.494 L 172.137 384.494 L 172.137 383.962 L 172.137 383.783 L 172.375 374.649 L 172.831 356.8 L 173.222 341.668 L 173.26 340.162 C 173.282 339.251 173.459 338.356 173.779 337.532 C 174.1 336.707 174.556 335.969 175.121 335.363 C 175.687 334.758 176.349 334.298 177.067 334.011 C 177.786 333.724 178.545 333.615 179.298 333.692 C 181.796 333.947 185.038 334.257 188.914 334.589 L 190.502 334.729 C 212.89 336.598 254.267 339.016 296.018 336 C 296.898 335.944 297.781 335.881 298.664 335.804 C 305.138 335.314 311.606 334.685 318.011 333.895 C 318.822 333.794 319.639 333.905 320.409 334.226 C 321.179 334.545 321.882 335.063 322.467 335.745 C 323.051 336.426 323.505 337.253 323.795 338.168 C 324.085 339.082 324.206 340.062 324.148 341.037 L 324.148 341.071 Z" fill="black" style="" transform="matrix(1, 0, 0, 1, 0, 7.105427357601002e-15)"/>
  <path d="M 172.195 384.494 L 172.195 383.962 L 265.085 382.746 L 321.677 382.11 L 321.835 382.11 L 321.835 382.002 L 322.366 373.453 L 322.591 369.637 L 323.459 355.256 L 324.142 343.869 L 324.142 343.589 C 324.173 343.064 324.154 342.538 324.083 342.019 C 324.086 341.997 324.086 341.976 324.083 341.955 C 323.937 340.881 323.574 339.868 323.025 339.004 C 322.444 338.106 321.681 337.401 320.809 336.955 C 319.936 336.51 318.985 336.34 318.044 336.458 C 311.637 337.248 305.17 337.876 298.695 338.367 C 297.812 338.444 296.929 338.507 296.051 338.565 C 254.298 341.548 212.921 339.13 190.533 337.292 L 188.947 337.152 C 185.069 336.822 181.827 336.516 179.33 336.256 C 177.956 336.115 176.59 336.592 175.492 337.596 C 174.394 338.598 173.644 340.052 173.386 341.681 C 173.333 342.025 173.301 342.374 173.291 342.724 L 172.93 356.82 L 172.44 374.674 L 172.205 383.809 L 172.205 383.987 L 172.205 384.521 L 172.195 384.494 Z" fill="#191A1D" style="" transform="matrix(1, 0, 0, 1, 0, 7.105427357601002e-15)"/>
  <path opacity="0.1" d="M 324.306 345.53 L 323.655 355.281 L 322.687 369.815 L 322.444 373.453 L 321.915 381.602 L 321.884 382.009 L 321.884 382.117 L 321.803 383.058 L 321.861 382.117 L 321.708 382.117 L 265.115 382.753 L 172.212 383.962 L 172.212 383.783 L 172.47 374.649 L 173 356.8 L 173.338 344.938 C 173.354 344.264 173.511 343.603 173.793 343.02 C 174.077 342.437 174.476 341.949 174.957 341.599 C 175.555 341.157 176.256 340.957 176.956 341.025 C 178.067 341.134 179.432 341.261 181.024 341.401 C 183.61 341.631 186.799 341.898 190.512 342.178 C 197.388 342.699 206.014 343.259 215.901 343.718 C 243.403 344.988 280.532 345.414 315.801 341.701 C 317.387 341.535 319.028 341.35 320.63 341.166 C 321.263 341.09 321.904 341.235 322.47 341.586 C 322.631 341.682 322.783 341.797 322.926 341.928 C 323.386 342.33 323.751 342.87 323.983 343.495 C 324.037 343.618 324.081 343.748 324.115 343.882 C 324.274 344.409 324.34 344.97 324.306 345.53 Z" fill="black" style="" transform="matrix(1, 0, 0, 1, 0, 7.105427357601002e-15)"/>
  <path opacity="0.1" d="M 144.883 354.237 L 144.883 356.268 C 144.884 357.004 144.709 357.727 144.381 358.35 C 144.054 358.976 143.586 359.474 143.031 359.791 L 121.821 360.28 C 121.259 359.969 120.78 359.47 120.445 358.842 C 120.111 358.214 119.933 357.484 119.934 356.738 L 119.934 354.829 L 144.883 354.237 Z" fill="black" style="" transform="matrix(1, 0, 0, 1, 0, 7.105427357601002e-15)"/>
  <path d="M 145.147 360.987 L 117.511 361.622 L 117.511 356.108 L 145.147 355.472 L 145.147 360.987 Z" fill="#191A1D" style="" transform="matrix(1, 0, 0, 1, 0, 7.105427357601002e-15)"/>
  <path opacity="0.1" d="M 145.147 360.987 L 117.511 361.622 L 117.511 356.108 L 145.147 355.472 L 145.147 360.987 Z" fill="black" style="" transform="matrix(1, 0, 0, 1, 0, 7.105427357601002e-15)"/>
  <path d="M 146.205 360.987 L 118.568 361.622 L 118.568 356.108 L 146.205 355.472 L 146.205 360.987 Z" fill="#191A1D" style="" transform="matrix(1, 0, 0, 1, 0, 7.105427357601002e-15)"/>
  <g opacity="0.1" transform="matrix(0.5289129614830017, 0, 0, 0.6360799670219421, 43.27730624790945, 85.83775457498066)" style="">
    <path opacity="0.1" d="M367.59 105.65C366.613 104.381 365.964 102.89 365.7 101.31C365.459 102.855 365.603 104.435 366.12 105.91C366.616 105.864 367.108 105.777 367.59 105.65Z" fill="black"/>
    <path opacity="0.1" d="M354.89 112.29C354.701 111.064 354.578 109.829 354.52 108.59C354.52 109.82 354.52 111.06 354.52 112.3L354.89 112.29Z" fill="black"/>
    <path opacity="0.1" d="M436.39 145.66C436.445 144.769 436.566 143.883 436.75 143.01C437.223 141.489 437.492 139.912 437.55 138.32C437.528 137.963 437.474 137.608 437.39 137.26C437.22 138.18 436.95 139.1 436.75 140.01C436.351 141.865 436.229 143.769 436.39 145.66Z" fill="black"/>
    <path opacity="0.1" d="M415.59 114.76L416.68 115.55C417.599 114.885 418.459 114.143 419.25 113.33C419.626 112.81 419.859 112.199 419.926 111.561C419.993 110.922 419.891 110.277 419.63 109.69C419.53 109.918 419.403 110.133 419.25 110.33C418.02 111.91 415.3 112.78 415.59 114.76Z" fill="black"/>
    <path opacity="0.1" d="M333.42 124.38C333.055 125.109 332.764 125.873 332.55 126.66C334.114 125.787 335.799 125.15 337.55 124.77L333.42 124.38Z" fill="black"/>
    <path opacity="0.1" d="M347.21 113.5C346.553 113.138 345.925 112.727 345.33 112.27C345.305 112.666 345.335 113.063 345.42 113.45C346.017 113.422 346.615 113.438 347.21 113.5Z" fill="black"/>
    <path opacity="0.1" d="M444.98 172.42C444.57 177.27 442.31 181.94 440.48 186.54C436.81 195.76 434.74 205.54 433.19 215.35C431.8 224.14 430.19 234.12 422.69 238.99C420.547 240.27 418.253 241.278 415.86 241.99C405.08 245.72 394.21 249.46 382.86 250.82C371.51 252.18 359.6 250.99 349.7 245.33C346.83 243.832 344.366 241.66 342.52 239C339.85 234.77 339.8 229.47 338.52 224.63C337.429 221.036 336.092 217.521 334.52 214.11C332.31 208.73 330.61 203.11 328.92 197.58C327.353 192.44 325.79 187.297 324.23 182.15C323.716 180.602 323.335 179.013 323.09 177.4C322.7 179.96 323.46 182.64 324.23 185.15C325.79 190.303 327.353 195.447 328.92 200.58C330.61 206.15 332.31 211.73 334.52 217.11C336.092 220.521 337.429 224.036 338.52 227.63C339.78 232.47 339.83 237.77 342.52 242C344.366 244.66 346.83 246.832 349.7 248.33C359.6 253.99 371.54 255.18 382.86 253.82C394.18 252.46 405.04 248.72 415.86 244.99C418.253 244.278 420.547 243.27 422.69 241.99C430.14 237.12 431.8 227.14 433.19 218.35C434.74 208.54 436.81 198.76 440.48 189.54C442.66 184.06 445.48 178.49 445 172.6C445 172.54 444.98 172.48 444.98 172.42Z" fill="black"/>
    <path opacity="0.1" d="M325.29 168.55C325.29 168.55 325.29 168.48 325.29 168.44C325.47 166.677 325.314 164.895 324.83 163.19C324.631 162.093 324.5 160.984 324.44 159.87C324.325 161.985 324.456 164.106 324.83 166.19C324.99 166.97 325.17 167.76 325.29 168.55Z" fill="black"/>
    <path opacity="0.1" d="M328.34 144.09C329.109 142.798 329.982 141.571 330.95 140.42C329.12 142.17 325.74 140.61 325.03 138.18C324.768 139.163 324.768 140.197 325.03 141.18C325.276 141.914 325.712 142.569 326.293 143.08C326.875 143.592 327.581 143.94 328.34 144.09Z" fill="black"/>
  </g>
  <path opacity="0.1" d="M 349.043 340.689 C 349.043 340.689 350.72 348.004 349.043 354.365 C 347.366 360.725 349.043 340.689 349.043 340.689 Z" fill="black" style="" transform="matrix(1, 0, 0, 1, 0, 7.105427357601002e-15)"/>
  <path opacity="0.1" d="M 356.184 348.15 C 356.184 348.15 356.887 357.437 355.3 359.084 C 353.713 360.732 356.184 348.15 356.184 348.15 Z" fill="black" style="" transform="matrix(1, 0, 0, 1, 0, 7.105427357601002e-15)"/>
</svg>